<svg t="1690167643415" class="icon" viewBox="0 0 1024 1024" version="1.1" xmlns="http://www.w3.org/2000/svg" p-id="911" width="200" height="200"><path d="M896 0H128a102.4 102.4 0 0 0-102.4 102.4v819.2a102.4 102.4 0 0 0 102.4 102.4h768a102.4 102.4 0 0 0 102.4-102.4V102.4a102.4 102.4 0 0 0-102.4-102.4z m25.6 947.2H102.4V76.8h819.2z" fill="#d81e06" p-id="912"></path><path d="M932.608 38.4C884.224 192.768 714.752 307.2 512 307.2S139.776 192.768 91.392 38.4H51.2v98.048C133.376 282.88 308.48 384 512 384s378.624-101.12 460.8-247.552V38.4z" fill="#d81e06" p-id="913"></path><path d="M342.528 665.6m0-32l0-12.8q0-32 32-32l275.2 0q32 0 32 32l0 12.8q0 32-32 32l-275.2 0q-32 0-32-32Z" fill="#d81e06" p-id="914"></path><path d="M473.6 576m38.4 0l0 0q38.4 0 38.4 38.4l0 256q0 38.4-38.4 38.4l0 0q-38.4 0-38.4-38.4l0-256q0-38.4 38.4-38.4Z" fill="#d81e06" p-id="915"></path><path d="M342.528 780.8m0-32l0-12.8q0-32 32-32l275.2 0q32 0 32 32l0 12.8q0 32-32 32l-275.2 0q-32 0-32-32Z" fill="#d81e06" p-id="916"></path><path d="M330.409839 461.41324m27.152901-27.1529l0 0q27.1529-27.1529 54.305801 0l126.713535 126.713535q27.1529 27.1529 0 54.305801l0 0q-27.1529 27.1529-54.305801 0l-126.713535-126.713535q-27.1529-27.1529 0-54.305801Z" fill="#d81e06" p-id="917"></path><path d="M639.28436 407.107439m27.1529 27.152901l0 0q27.1529 27.1529 0 54.305801l-126.713535 126.713535q-27.1529 27.1529-54.305801 0l0 0q-27.1529-27.1529 0-54.305801l126.713535-126.713535q27.1529-27.1529 54.305801 0Z" fill="#d81e06" p-id="918"></path></svg>